<svg width="150" height="32" viewBox="0 0 150 32" fill="none" xmlns="http://www.w3.org/2000/svg">
<path d="M48.4649 10.5034L41.5626 3.6011C41.5583 3.59683 41.5537 3.5929 41.5494 3.58863C41.5452 3.58437 41.5401 3.57863 41.5352 3.5737C39.521 1.55969 36.8655 0.31374 34.0292 0.0517472C31.1928 -0.210246 28.3543 0.528226 26.0052 2.1392C23.656 0.528226 20.8175 -0.210246 17.9811 0.0517472C15.1447 0.31374 12.4894 1.55969 10.4751 3.5737L3.5728 10.4759C1.42229 12.6269 0.152702 15.5037 0.0129045 18.5421C-0.126893 21.5805 0.873174 24.5617 2.81708 26.9012C4.761 29.2405 7.50856 30.7697 10.5212 31.1886C13.5339 31.6076 16.5945 30.8863 19.103 29.1661C21.1341 30.5589 23.539 31.3046 26.0017 31.3054C28.4646 31.3061 30.8698 30.5617 32.9017 29.17C35.4072 30.9009 38.4695 31.6322 41.4868 31.2205C44.5041 30.8086 47.2582 29.2835 49.2085 26.9445C51.1585 24.6055 52.1634 21.6218 52.026 18.5798C51.8883 15.5376 50.6182 12.6568 48.4649 10.5034ZM15.3549 25.7096C13.7967 26.4539 12.0256 26.6232 10.3546 26.1878C8.68361 25.7526 7.22029 24.7405 6.22327 23.3306C5.22627 21.9207 4.75975 20.2039 4.90619 18.4833C5.05261 16.7628 5.80255 15.1493 7.02347 13.9282L13.9256 7.02586C14.997 5.95595 16.3732 5.24389 17.8655 4.98752C19.3577 4.73115 20.8928 4.943 22.2597 5.59398L17.3773 10.4759C15.505 12.3385 14.2928 14.7622 13.9256 17.3776C13.8448 17.9494 13.804 18.5261 13.8036 19.1037C13.7987 21.3869 14.439 23.6251 15.6507 25.5604C15.5529 25.6125 15.4543 25.6621 15.3549 25.7092V25.7096ZM31.1818 24.2809C29.8074 25.6463 27.9477 26.4111 26.0102 26.4079C24.0728 26.4047 22.2157 25.6335 20.8457 24.2637C19.4758 22.8936 18.7047 21.0366 18.7014 19.0991C18.6983 17.1617 19.463 15.3021 20.8285 13.9275L26.0052 8.75087L31.1818 13.9275C32.5523 15.3015 33.322 17.163 33.322 19.1037C33.322 21.0443 32.5523 22.9058 31.1818 24.2797V24.2809ZM45.0137 24.3083C43.9373 25.3819 42.5538 26.0943 41.0547 26.3471C39.5556 26.5999 38.0149 26.3804 36.6461 25.719C36.5476 25.6716 36.4502 25.6219 36.3539 25.5699C37.5692 23.6324 38.2116 21.3907 38.2067 19.1037C38.2062 18.5261 38.1655 17.9494 38.0847 17.3776C37.7175 14.7622 36.5053 12.3385 34.633 10.4759L29.7805 5.62351L29.7531 5.59611C31.1193 4.94543 32.6536 4.73343 34.1451 4.98919C35.6367 5.24498 37.0125 5.95599 38.084 7.02471C38.0889 7.02963 38.0935 7.03488 38.0983 7.0398C38.103 7.04472 38.1071 7.048 38.1114 7.05227L44.9814 13.9223L45.0142 13.9551C46.387 15.3281 47.1583 17.1902 47.1583 19.1318C47.1583 21.0733 46.387 22.9355 45.0142 24.3084L45.0137 24.3083Z" fill="url(#paint0_linear_34_9)"/>
<path d="M48.4649 10.5034L41.5626 3.6011C41.5583 3.59683 41.5537 3.5929 41.5494 3.58863C41.5452 3.58437 41.5401 3.57863 41.5352 3.5737C39.521 1.55969 36.8655 0.31374 34.0292 0.0517472C31.1928 -0.210246 28.3543 0.528226 26.0052 2.1392C23.656 0.528226 20.8175 -0.210246 17.9811 0.0517472C15.1447 0.31374 12.4894 1.55969 10.4751 3.5737L3.5728 10.4759C1.42229 12.6269 0.152702 15.5037 0.0129045 18.5421C-0.126893 21.5805 0.873174 24.5617 2.81708 26.9012C4.761 29.2405 7.50856 30.7697 10.5212 31.1886C13.5339 31.6076 16.5945 30.8863 19.103 29.1661C21.1341 30.5589 23.539 31.3046 26.0017 31.3054C28.4646 31.3061 30.8698 30.5617 32.9017 29.17C35.4072 30.9009 38.4695 31.6322 41.4868 31.2205C44.5041 30.8086 47.2582 29.2835 49.2085 26.9445C51.1585 24.6055 52.1634 21.6218 52.026 18.5798C51.8883 15.5376 50.6182 12.6568 48.4649 10.5034ZM15.3549 25.7096C13.7967 26.4539 12.0256 26.6232 10.3546 26.1878C8.68361 25.7526 7.22029 24.7405 6.22327 23.3306C5.22627 21.9207 4.75975 20.2039 4.90619 18.4833C5.05261 16.7628 5.80255 15.1493 7.02347 13.9282L13.9256 7.02586C14.997 5.95595 16.3732 5.24389 17.8655 4.98752C19.3577 4.73115 20.8928 4.943 22.2597 5.59398L17.3773 10.4759C15.505 12.3385 14.2928 14.7622 13.9256 17.3776C13.8448 17.9494 13.804 18.5261 13.8036 19.1037C13.7987 21.3869 14.439 23.6251 15.6507 25.5604C15.5529 25.6125 15.4543 25.6621 15.3549 25.7092V25.7096ZM31.1818 24.2809C29.8074 25.6463 27.9477 26.4111 26.0102 26.4079C24.0728 26.4047 22.2157 25.6335 20.8457 24.2637C19.4758 22.8936 18.7047 21.0366 18.7014 19.0991C18.6983 17.1617 19.463 15.3021 20.8285 13.9275L26.0052 8.75087L31.1818 13.9275C32.5523 15.3015 33.322 17.163 33.322 19.1037C33.322 21.0443 32.5523 22.9058 31.1818 24.2797V24.2809ZM45.0137 24.3083C43.9373 25.3819 42.5538 26.0943 41.0547 26.3471C39.5556 26.5999 38.0149 26.3804 36.6461 25.719C36.5476 25.6716 36.4502 25.6219 36.3539 25.5699C37.5692 23.6324 38.2116 21.3907 38.2067 19.1037C38.2062 18.5261 38.1655 17.9494 38.0847 17.3776C37.7175 14.7622 36.5053 12.3385 34.633 10.4759L29.7805 5.62351L29.7531 5.59611C31.1193 4.94543 32.6536 4.73343 34.1451 4.98919C35.6367 5.24498 37.0125 5.95599 38.084 7.02471C38.0889 7.02963 38.0935 7.03488 38.0983 7.0398C38.103 7.04472 38.1071 7.048 38.1114 7.05227L44.9814 13.9223L45.0142 13.9551C46.387 15.3281 47.1583 17.1902 47.1583 19.1318C47.1583 21.0733 46.387 22.9355 45.0142 24.3084L45.0137 24.3083Z" fill="url(#paint1_linear_34_9)"/>
<path d="M68.4091 10.3636H70.0909L74.0454 20.0227H74.1818L78.1363 10.3636H79.8181V22H78.5V13.1591H78.3863L74.75 22H73.4772L69.8409 13.1591H69.7272V22H68.4091V10.3636Z" fill="url(#paint2_linear_34_9)"/>
<path d="M92.4616 16.1818C92.4616 17.4091 92.24 18.4697 91.7968 19.3636C91.3537 20.2576 90.7457 20.947 89.973 21.4318C89.2002 21.9167 88.3177 22.1591 87.3253 22.1591C86.3328 22.1591 85.4503 21.9167 84.6775 21.4318C83.9048 20.947 83.2968 20.2576 82.8537 19.3636C82.4105 18.4697 82.1889 17.4091 82.1889 16.1818C82.1889 14.9545 82.4105 13.8939 82.8537 13C83.2968 12.1061 83.9048 11.4167 84.6775 10.9318C85.4503 10.447 86.3328 10.2045 87.3253 10.2045C88.3177 10.2045 89.2002 10.447 89.973 10.9318C90.7457 11.4167 91.3537 12.1061 91.7968 13C92.24 13.8939 92.4616 14.9545 92.4616 16.1818ZM91.098 16.1818C91.098 15.1742 90.9294 14.3239 90.5923 13.6307C90.259 12.9375 89.8063 12.4129 89.2343 12.0568C88.6662 11.7008 88.0298 11.5227 87.3253 11.5227C86.6207 11.5227 85.9824 11.7008 85.4105 12.0568C84.8423 12.4129 84.3896 12.9375 84.0525 13.6307C83.7192 14.3239 83.5525 15.1742 83.5525 16.1818C83.5525 17.1894 83.7192 18.0398 84.0525 18.733C84.3896 19.4261 84.8423 19.9508 85.4105 20.3068C85.9824 20.6629 86.6207 20.8409 87.3253 20.8409C88.0298 20.8409 88.6662 20.6629 89.2343 20.3068C89.8063 19.9508 90.259 19.4261 90.5923 18.733C90.9294 18.0398 91.098 17.1894 91.098 16.1818Z" fill="url(#paint3_linear_34_9)"/>
<path d="M94.7613 10.3636L98.2159 20.1591H98.3522L101.807 10.3636H103.284L99.0113 22H97.5568L93.2841 10.3636H94.7613Z" fill="url(#paint4_linear_34_9)"/>
<path d="M106.506 10.3636V22H105.097V10.3636H106.506Z" fill="url(#paint5_linear_34_9)"/>
<path d="M109.331 22V10.3636H116.354V11.6136H110.74V15.5455H115.99V16.7955H110.74V20.75H116.445V22H109.331Z" fill="url(#paint6_linear_34_9)"/>
<path d="M119.371 22H117.893L122.166 10.3636H123.621L127.893 22H126.416L122.939 12.2045H122.848L119.371 22ZM119.916 17.4545H125.871V18.7045H119.916V17.4545Z" fill="url(#paint7_linear_34_9)"/>
<path d="M129.706 22V10.3636H133.638C134.547 10.3636 135.293 10.5189 135.876 10.8295C136.46 11.1364 136.892 11.5587 137.172 12.0966C137.452 12.6345 137.592 13.2462 137.592 13.9318C137.592 14.6174 137.452 15.2254 137.172 15.7557C136.892 16.286 136.462 16.7027 135.882 17.0057C135.303 17.3049 134.562 17.4545 133.66 17.4545H130.479V16.1818H133.615C134.236 16.1818 134.736 16.0909 135.115 15.9091C135.498 15.7273 135.774 15.4697 135.945 15.1364C136.119 14.7992 136.206 14.3977 136.206 13.9318C136.206 13.4659 136.119 13.0587 135.945 12.7102C135.77 12.3617 135.492 12.0928 135.109 11.9034C134.727 11.7102 134.221 11.6136 133.592 11.6136H131.115V22H129.706ZM135.183 16.7727L138.047 22H136.41L133.592 16.7727H135.183Z" fill="url(#paint8_linear_34_9)"/>
<path d="M149.758 16.1818C149.758 17.4091 149.537 18.4697 149.094 19.3636C148.651 20.2576 148.043 20.947 147.27 21.4318C146.497 21.9167 145.615 22.1591 144.622 22.1591C143.63 22.1591 142.747 21.9167 141.974 21.4318C141.202 20.947 140.594 20.2576 140.151 19.3636C139.707 18.4697 139.486 17.4091 139.486 16.1818C139.486 14.9545 139.707 13.8939 140.151 13C140.594 12.1061 141.202 11.4167 141.974 10.9318C142.747 10.447 143.63 10.2045 144.622 10.2045C145.615 10.2045 146.497 10.447 147.27 10.9318C148.043 11.4167 148.651 12.1061 149.094 13C149.537 13.8939 149.758 14.9545 149.758 16.1818ZM148.395 16.1818C148.395 15.1742 148.226 14.3239 147.889 13.6307C147.556 12.9375 147.103 12.4129 146.531 12.0568C145.963 11.7008 145.327 11.5227 144.622 11.5227C143.918 11.5227 143.279 11.7008 142.707 12.0568C142.139 12.4129 141.687 12.9375 141.349 13.6307C141.016 14.3239 140.849 15.1742 140.849 16.1818C140.849 17.1894 141.016 18.0398 141.349 18.733C141.687 19.4261 142.139 19.9508 142.707 20.3068C143.279 20.6629 143.918 20.8409 144.622 20.8409C145.327 20.8409 145.963 20.6629 146.531 20.3068C147.103 19.9508 147.556 19.4261 147.889 18.733C148.226 18.0398 148.395 17.1894 148.395 16.1818Z" fill="url(#paint9_linear_34_9)"/>
<defs>
<linearGradient id="paint0_linear_34_9" x1="14.2585" y1="30.9879" x2="26.1572" y2="-2.09924" gradientUnits="userSpaceOnUse">
<stop stop-color="#FCA311"/>
<stop offset="1" stop-color="#FF2539"/>
</linearGradient>
<linearGradient id="paint1_linear_34_9" x1="14.2585" y1="30.9879" x2="26.1572" y2="-2.09924" gradientUnits="userSpaceOnUse">
<stop stop-color="#FCA311"/>
<stop offset="1" stop-color="#FF2539"/>
</linearGradient>
<linearGradient id="paint2_linear_34_9" x1="109" y1="22" x2="109" y2="7" gradientUnits="userSpaceOnUse">
<stop stop-color="#FCA311"/>
<stop offset="1" stop-color="#FF2539"/>
</linearGradient>
<linearGradient id="paint3_linear_34_9" x1="109" y1="22" x2="109" y2="7" gradientUnits="userSpaceOnUse">
<stop stop-color="#FCA311"/>
<stop offset="1" stop-color="#FF2539"/>
</linearGradient>
<linearGradient id="paint4_linear_34_9" x1="109" y1="22" x2="109" y2="7" gradientUnits="userSpaceOnUse">
<stop stop-color="#FCA311"/>
<stop offset="1" stop-color="#FF2539"/>
</linearGradient>
<linearGradient id="paint5_linear_34_9" x1="109" y1="22" x2="109" y2="7" gradientUnits="userSpaceOnUse">
<stop stop-color="#FCA311"/>
<stop offset="1" stop-color="#FF2539"/>
</linearGradient>
<linearGradient id="paint6_linear_34_9" x1="109" y1="22" x2="109" y2="7" gradientUnits="userSpaceOnUse">
<stop stop-color="#FCA311"/>
<stop offset="1" stop-color="#FF2539"/>
</linearGradient>
<linearGradient id="paint7_linear_34_9" x1="109" y1="22" x2="109" y2="7" gradientUnits="userSpaceOnUse">
<stop stop-color="#FCA311"/>
<stop offset="1" stop-color="#FF2539"/>
</linearGradient>
<linearGradient id="paint8_linear_34_9" x1="109" y1="22" x2="109" y2="7" gradientUnits="userSpaceOnUse">
<stop stop-color="#FCA311"/>
<stop offset="1" stop-color="#FF2539"/>
</linearGradient>
<linearGradient id="paint9_linear_34_9" x1="109" y1="22" x2="109" y2="7" gradientUnits="userSpaceOnUse">
<stop stop-color="#FCA311"/>
<stop offset="1" stop-color="#FF2539"/>
</linearGradient>
</defs>
</svg>
