<svg width="53" height="32" viewBox="0 0 53 32" fill="none" xmlns="http://www.w3.org/2000/svg">
<path d="M48.4649 10.5034L41.5626 3.6011C41.5583 3.59683 41.5537 3.5929 41.5494 3.58863C41.5452 3.58437 41.5401 3.57863 41.5352 3.5737C39.521 1.55969 36.8655 0.31374 34.0292 0.0517472C31.1928 -0.210246 28.3543 0.528226 26.0052 2.1392C23.656 0.528226 20.8175 -0.210246 17.9811 0.0517472C15.1447 0.31374 12.4894 1.55969 10.4751 3.5737L3.5728 10.4759C1.42229 12.6269 0.152702 15.5037 0.0129045 18.5421C-0.126893 21.5805 0.873174 24.5617 2.81708 26.9012C4.761 29.2405 7.50856 30.7697 10.5212 31.1886C13.5339 31.6076 16.5945 30.8863 19.103 29.1661C21.1341 30.5589 23.539 31.3046 26.0017 31.3054C28.4646 31.3061 30.8698 30.5617 32.9017 29.17C35.4072 30.9009 38.4695 31.6322 41.4868 31.2205C44.5041 30.8086 47.2582 29.2835 49.2085 26.9445C51.1585 24.6055 52.1634 21.6218 52.026 18.5798C51.8883 15.5376 50.6182 12.6568 48.4649 10.5034ZM15.3549 25.7096C13.7967 26.4539 12.0256 26.6232 10.3546 26.1878C8.68361 25.7526 7.22029 24.7405 6.22327 23.3306C5.22627 21.9207 4.75975 20.2039 4.90619 18.4833C5.05261 16.7628 5.80255 15.1493 7.02347 13.9282L13.9256 7.02586C14.997 5.95595 16.3732 5.24389 17.8655 4.98752C19.3577 4.73115 20.8928 4.943 22.2597 5.59398L17.3773 10.4759C15.505 12.3385 14.2928 14.7622 13.9256 17.3776C13.8448 17.9494 13.804 18.5261 13.8036 19.1037C13.7987 21.3869 14.439 23.6251 15.6507 25.5604C15.5529 25.6125 15.4543 25.6621 15.3549 25.7092V25.7096ZM31.1818 24.2809C29.8074 25.6463 27.9477 26.4111 26.0102 26.4079C24.0728 26.4047 22.2157 25.6335 20.8457 24.2637C19.4758 22.8936 18.7047 21.0366 18.7014 19.0991C18.6983 17.1617 19.463 15.3021 20.8285 13.9275L26.0052 8.75087L31.1818 13.9275C32.5523 15.3015 33.322 17.163 33.322 19.1037C33.322 21.0443 32.5523 22.9058 31.1818 24.2797V24.2809ZM45.0137 24.3083C43.9373 25.3819 42.5538 26.0943 41.0547 26.3471C39.5556 26.5999 38.0149 26.3804 36.6461 25.719C36.5476 25.6716 36.4502 25.6219 36.3539 25.5699C37.5692 23.6324 38.2116 21.3907 38.2067 19.1037C38.2062 18.5261 38.1655 17.9494 38.0847 17.3776C37.7175 14.7622 36.5053 12.3385 34.633 10.4759L29.7805 5.62351L29.7531 5.59611C31.1193 4.94543 32.6536 4.73343 34.1451 4.98919C35.6367 5.24498 37.0125 5.95599 38.084 7.02471C38.0889 7.02963 38.0935 7.03488 38.0983 7.0398C38.103 7.04472 38.1071 7.048 38.1114 7.05227L44.9814 13.9223L45.0142 13.9551C46.387 15.3281 47.1583 17.1902 47.1583 19.1318C47.1583 21.0733 46.387 22.9355 45.0142 24.3084L45.0137 24.3083Z" fill="url(#paint0_linear_34_2)"/>
<path d="M48.4649 10.5034L41.5626 3.6011C41.5583 3.59683 41.5537 3.5929 41.5494 3.58863C41.5452 3.58437 41.5401 3.57863 41.5352 3.5737C39.521 1.55969 36.8655 0.31374 34.0292 0.0517472C31.1928 -0.210246 28.3543 0.528226 26.0052 2.1392C23.656 0.528226 20.8175 -0.210246 17.9811 0.0517472C15.1447 0.31374 12.4894 1.55969 10.4751 3.5737L3.5728 10.4759C1.42229 12.6269 0.152702 15.5037 0.0129045 18.5421C-0.126893 21.5805 0.873174 24.5617 2.81708 26.9012C4.761 29.2405 7.50856 30.7697 10.5212 31.1886C13.5339 31.6076 16.5945 30.8863 19.103 29.1661C21.1341 30.5589 23.539 31.3046 26.0017 31.3054C28.4646 31.3061 30.8698 30.5617 32.9017 29.17C35.4072 30.9009 38.4695 31.6322 41.4868 31.2205C44.5041 30.8086 47.2582 29.2835 49.2085 26.9445C51.1585 24.6055 52.1634 21.6218 52.026 18.5798C51.8883 15.5376 50.6182 12.6568 48.4649 10.5034ZM15.3549 25.7096C13.7967 26.4539 12.0256 26.6232 10.3546 26.1878C8.68361 25.7526 7.22029 24.7405 6.22327 23.3306C5.22627 21.9207 4.75975 20.2039 4.90619 18.4833C5.05261 16.7628 5.80255 15.1493 7.02347 13.9282L13.9256 7.02586C14.997 5.95595 16.3732 5.24389 17.8655 4.98752C19.3577 4.73115 20.8928 4.943 22.2597 5.59398L17.3773 10.4759C15.505 12.3385 14.2928 14.7622 13.9256 17.3776C13.8448 17.9494 13.804 18.5261 13.8036 19.1037C13.7987 21.3869 14.439 23.6251 15.6507 25.5604C15.5529 25.6125 15.4543 25.6621 15.3549 25.7092V25.7096ZM31.1818 24.2809C29.8074 25.6463 27.9477 26.4111 26.0102 26.4079C24.0728 26.4047 22.2157 25.6335 20.8457 24.2637C19.4758 22.8936 18.7047 21.0366 18.7014 19.0991C18.6983 17.1617 19.463 15.3021 20.8285 13.9275L26.0052 8.75087L31.1818 13.9275C32.5523 15.3015 33.322 17.163 33.322 19.1037C33.322 21.0443 32.5523 22.9058 31.1818 24.2797V24.2809ZM45.0137 24.3083C43.9373 25.3819 42.5538 26.0943 41.0547 26.3471C39.5556 26.5999 38.0149 26.3804 36.6461 25.719C36.5476 25.6716 36.4502 25.6219 36.3539 25.5699C37.5692 23.6324 38.2116 21.3907 38.2067 19.1037C38.2062 18.5261 38.1655 17.9494 38.0847 17.3776C37.7175 14.7622 36.5053 12.3385 34.633 10.4759L29.7805 5.62351L29.7531 5.59611C31.1193 4.94543 32.6536 4.73343 34.1451 4.98919C35.6367 5.24498 37.0125 5.95599 38.084 7.02471C38.0889 7.02963 38.0935 7.03488 38.0983 7.0398C38.103 7.04472 38.1071 7.048 38.1114 7.05227L44.9814 13.9223L45.0142 13.9551C46.387 15.3281 47.1583 17.1902 47.1583 19.1318C47.1583 21.0733 46.387 22.9355 45.0142 24.3084L45.0137 24.3083Z" fill="url(#paint1_linear_34_2)"/>
<defs>
<linearGradient id="paint0_linear_34_2" x1="14.2585" y1="30.9879" x2="26.1572" y2="-2.09924" gradientUnits="userSpaceOnUse">
<stop stop-color="#FCA311"/>
<stop offset="1" stop-color="#FF2539"/>
</linearGradient>
<linearGradient id="paint1_linear_34_2" x1="14.2585" y1="30.9879" x2="26.1572" y2="-2.09924" gradientUnits="userSpaceOnUse">
<stop stop-color="#FCA311"/>
<stop offset="1" stop-color="#FF2539"/>
</linearGradient>
</defs>
</svg>
